/* XPM */
static char *c7220163450d41199e24058879ff8571B32sdL4IMbyMupUq[] = {
/* columns rows colors chars-per-pixel */
"32 32 20 1 ",
"  c #4C4A4A",
". c #4D4C4C",
"X c #4E4C4C",
"o c #504F4F",
"O c #525151",
"+ c #535353",
"@ c #555353",
"# c #565656",
"$ c gray34",
"% c #585656",
"& c #5A5A5A",
"* c #5C5B5B",
"= c #5A5C5C",
"- c gray36",
"; c #606060",
": c #606161",
"> c #626363",
", c #656565",
"< c gray42",
"1 c #6D6D6D",
/* pixels */
"&&&&,11111&1111111,&&&&%&&&&&&&&",
"&&&&&&&&&>>-&&&&&&&&$&&$&&&&&&&&",
"&&&&&&&&%-->&&&&&&&&&$&$&&&&&&&&",
"&&&&&&&&&>-&%&&&&&&&&&&&&&&&&&&&",
"&&&&&&&&&-o@&&&&&&&&&&&&&&&&&&&&",
"&&&&&&&&&&o$=&&&&&&&&&&&&&&&&&&&",
"&&&&&&&=&&X@=&&&&&&&&&&&&&&&&&&&",
"-&-&-%%&&% @$&$&$&$&&&&&&&&&&&&&",
"OOOOOXXXX XXXOOO@O@OO$$$$$$$$OOO",
"&@$&&&&&&&=$&;>>>>>-&>>>>>>>&&&&",
"&&$&&&&&&&&&&&&&&$&>@&&&%&&$&&&&",
"&&&&&&&&&&&&&&&&&&&&$&&&&&&&&&&&",
"&&&&&&&&&&&&&&&&&&& $&&&&&&&&&&&",
"&&&&&&&&&&&&&&&&&&&X$&&&&&&&&&&&",
"&&&&&&&&&&&&&&&&&&=O$&&&&&&&&&&&",
"&&&-&-&&&&&&&=&$%&$ $&&&&&-&-=&&",
"OOOoOO$$$$%%$$@OOOOO@$@$$$o O O ",
"%&&&&&&>>>>-,&*>>>>>>>>>-;$$$$$%",
"&&&&&&&&$&&$&&$%$&&&&$&&&%&-*&&&",
"&&&&&$%&&&%$>&$&&&&&&&&&&&&&&&&&",
"&&&&&%$$@$&&>&$&&&&&&&&&&&&&&&&&",
"&&&&&&&&$&&&&o&&&&&&&&&&&&&&&&&&",
"&&&&&&&&&&&&% &&&&&&&&&&&&&&&&&&",
"&*==*&&&&&&&& $&&&&&&&&&&&&&&&&&",
"OXXOX O o    X$$$$$$O$$$$$&$$$@$",
"$$@$$$$$@$$@@*>>;>>;>>>&,>&>>>>>",
"&&&&&*&&-&&&&&&&$&&&$&;$&&$&$&$&",
"&&&&&&&&&&&&&&&%$&&&&$>O$&&&%&&&",
"&&&&&&&&&&&&&&&&$%%$$&;O%&&&&&&&",
"&&&&&&&&&&&&&&&&&&@$$&& &&&&&&&&",
"&&&&&&&&&&&&&&&&&&&&&&&X$=&&&&&&",
"&&&&&&&&&&&&&&&&&&&&&&$X&&&&&&&&"
};
