/* XPM */
static char *_3591c3b005945e9f664243ce00010fakdb8NKP5QLqA6jxk[] = {
/* columns rows colors chars-per-pixel */
"32 32 11 1 ",
"  c #25131A",
". c #362030",
"X c #3D253B",
"o c #593756",
"O c #895A45",
"+ c #8C7254",
"@ c #BF704D",
"# c #90919E",
"$ c #A89780",
"% c #B19D83",
"& c #ADC1CF",
/* pixels */
"XX......................XX..XXXX",
"XX.......          .....XX..XXXX",
"..XXXXXXX          XXXXXXXXXXXXX",
"..XXXXX  ++%%%%%%++  XXXXXXXXXXX",
"..XXXXX  ++%%%%%%++  XXXXXXXXXXX",
"..XXX  ++%%%%%%%%%%++  XXXXXXXXX",
"..XXX  ++%%%%%%%%%%++  XXXXXXXXX",
"..XXX  %%oooo  %%oo    XXXXXXXXX",
"..XXX  %%oooo  %%oo    XXXXXXXXX",
"..XXX  %%      %%      XXXXXXXXX",
"..XXX  %%      %%      XXXXXXXXX",
"..XXXXX  ++%%%%%%%%%%  XXXXXXXXX",
"XXXXXXX  ++%%%%%%%%%%  XXXXXXXXX",
"XXX        ++%%  %%  XXXXXX    X",
"..X        ++%%  %%  ......    .",
".  ####&&            ....  ##  .",
"X  ####&&            XXXX  ##  X",
"X  ##&&&&OO@@  $$  ++    ##&&  X",
"X  ##&&&&OO@@  $$  ++    ##&&  X",
"X          OO@@    %%  ##&&  XXX",
"X          OO@@    %%  ##&&  XXX",
"XXX  ++  ++  &&@@    %%    XXXXX",
"XXX  ++  ++  &&@@    %%    XXXXX",
"XXX      ++        @@    XXXXXXX",
"XXX      ++        @@    XXXXXXX",
"XXXXX  %%  XX  %%  XXXXXXXXXXXXX",
"..XXX  %%  XX  %%  XXXXXXXXXXXXX",
"..XXX  ++  XX  ++  XXXXXXXXXXXXX",
"..XXX  ++  XX  ++  XXXXXXXXXXXXX",
"..XXXXXXXXXXXXXXXXXXXXXXXXXXXXXX",
"..XXXXXXXXXXXXXXXXXXXXXXXXXXXXXX",
"..XXXXXXXXXXXXXXXXXXXXXXXXXXXXXX"
};
