/* XPM */
static char *new[] = {
/* columns rows colors chars-per-pixel */
"50 50 157 2 ",
"   c #4B3D2B",
".  c #463F37",
"X  c #483E33",
"o  c #463F3A",
"O  c #4F412D",
"+  c #4D4336",
"@  c #46403E",
"#  c #4B433B",
"$  c #534633",
"%  c #574834",
"&  c #594B36",
"*  c #514739",
"=  c #53493B",
"-  c #5C4E3A",
";  c #5E503E",
":  c #62533F",
">  c #454244",
",  c #4A4542",
"<  c #4F4841",
"1  c #45454C",
"2  c #4F4B4C",
"3  c #524B43",
"4  c #584D40",
"5  c #524D4A",
"6  c #5D5243",
"7  c #57504C",
"8  c #5A524D",
"9  c #474750",
"0  c #484750",
"q  c #4A4A53",
"w  c #4F4F58",
"e  c #524F53",
"r  c #575251",
"t  c #5A5553",
"y  c #52525C",
"u  c #5D595C",
"i  c #635543",
"p  c #675946",
"a  c #685A47",
"s  c #625749",
"d  c #65594A",
"f  c #6A5D4B",
"g  c #645C55",
"h  c #685E53",
"j  c #645E5D",
"k  c #6E604E",
"l  c #70624F",
"z  c #6C6154",
"x  c #67605F",
"c  c #6E645B",
"v  c #726552",
"b  c #766955",
"n  c #71665C",
"m  c #75695B",
"M  c #7A6C5A",
"N  c #565661",
"B  c #5A5A65",
"V  c #5D5D69",
"C  c #605E65",
"Z  c #666162",
"A  c #6B6463",
"S  c #6E6867",
"D  c #62616E",
"F  c #696569",
"G  c #6E696B",
"H  c #746B64",
"J  c #7B6E60",
"K  c #736C6B",
"L  c #786F6C",
"P  c #7D7165",
"I  c #7A716E",
"U  c #676774",
"Y  c #6A6770",
"T  c #696976",
"R  c #6D6D7C",
"E  c #726D72",
"W  c #706F7C",
"Q  c #7B7370",
"!  c #7B7270",
"~  c #787071",
"^  c #7C7370",
"/  c #7B7475",
"(  c #747179",
")  c #7A767F",
"_  c #7F787A",
"`  c #7F787D",
"'  c #82776F",
"]  c #847A73",
"[  c #817978",
"{  c #81797B",
"}  c #807A7E",
"|  c #817A7F",
" . c #827A79",
".. c #6F6F80",
"X. c #6F6F80",
"o. c #707080",
"O. c #707081",
"+. c #707082",
"@. c #717082",
"#. c #717182",
"$. c #727283",
"%. c #737384",
"&. c #717182",
"*. c #7C7985",
"=. c #757588",
"-. c #777789",
";. c #767689",
":. c #787789",
">. c #78788B",
",. c #7A7A8F",
"<. c #7B7B8F",
"1. c #79798D",
"2. c #7B7B90",
"3. c #7C7C90",
"4. c #7C7C91",
"5. c #7E7E92",
"6. c #7E7E93",
"7. c #7F7E93",
"8. c #7F7F95",
"9. c #7E7E93",
"0. c #827B81",
"q. c #827B82",
"w. c #827C84",
"e. c #827C85",
"r. c #827D87",
"t. c #857F87",
"y. c #827D83",
"u. c #837E89",
"i. c #837F8B",
"p. c #827F8D",
"a. c #817F8F",
"s. c #807E8F",
"d. c #827E8B",
"f. c #817F92",
"g. c #817F91",
"h. c #8A8283",
"j. c #86818B",
"k. c #8B858C",
"l. c #828193",
"z. c #818094",
"x. c #808096",
"c. c #848292",
"v. c #8A8594",
"b. c #8A8693",
"n. c #8F8A96",
"m. c #828198",
"M. c #83839A",
"N. c #84849B",
"B. c #87879F",
"V. c #85859C",
"C. c #88879C",
"Z. c #8D8A9D",
"A. c #8C899C",
"S. c #8E8DA5",
"D. c #8B8BA3",
"F. c #918FA5",
"G. c #9291AA",
/* pixels */

"####################################################################################################",
"####################################################################################################",
"####################################################################################################",
"####################################################################################################",
"####################################################################################################",
"####################################################################################################",
"y q q q q q q q q 1 . % k K W T T T U U U T T T U U T T U T U U U U U U U U U U U U U U T T p t y y ",
"q q q q q q 1 > o   a K T T T T U U U U U U T T U U T T T T U U U U U U U U U U U T V B N B d 7 q q ",
"> @ . . + O     - z C V V D U U U U U U U U U U U U U U U U U U U U U U D V B y y w y q q 1 6 d , > ",
"i a c ! } } } H b u w y w y y N N N N N B B B B B B B B V V B B B B N y w w q q q q 1 > @ . i v a : ",
"Z.S.B.B.x.4.4.*.v 2 1 q q q q q q q q q q q q q q q q q q q q q q q 1 1 1 1 > . .   O & i n I } r.b.",
"@.T T T @.@.T T h d , @ @ @ > @ > > @ @ @ @ > > > > > > > > > @ @ , @ # $ - i c ! r.u.u.4.>.=.@.@.@.",
"T T T T T T T T h b v a i i : i i i i i i d z a d d d d p a p a v v I j.Z.S.S.B.>.@.T T T T T T T T ",
"U U U U U U T T h J x.C.C.B.C.C.C.B.Z.S.S.B.S.B.D.S.S.S.S.S.S.x.M I S.4.@...T T T T T U U U U U U U ",
"U U U T U U T T h H T T @.@.@.( T T T T T T T ..@.o.T ( T ( @.B.c c T ..T T T U U U U U U U U U U U ",
"U U U T U U T T h S T T @.@.( T T T T T T T T T T T T @.T T T T i j @.T T U U U U U U U U U U U U T ",
"U U U U U U T ..c G @.( T T T U U U U U U U U U U U T T T T T T i j @.T T U U U U U U U U U U U U T ",
"U U U U U U T ..z K @.T T U U U U U U U U U U U U T U U U T T T i j T U U U U U U U U U U U U T T U ",
"U U U U U U T T h K T T U U U U T T T U U U U U U U U U T T T T d j T U U U U U U U U U U T T U U U ",
"U U U U U U U U h S T T U U U U U T T T U U U U U U U U T T U U i t V D U U U U U U U U U U U U U U ",
"U U U U U V B y t c T T U U U U U U U U U U U U U U U U U V B B i 7 y y N B V V D D D U U U U U U U ",
"B B B N N y w q t c V D U U U U U U U U U U U U U U D V B B N y i 5 q q w y y y y y y y y N N N B B ",
"q q q q q q q 1 7 h N N N B V V V V V V V B B B B B N y y q q q s 6 1 1 1 1 q q q q q q q q q q q q ",
"> > > > > > > > i h N N N N N B B N N N N y y y q q q q 1 1 1 , v v = o @ @ > > > 1 1 1 1 > > > > > ",
"& & % % % & - i v h y y N N N N y y w q q q q 1 1 1 1 > # + ; l M M v d i ; - & $ $ $ - ; - ; - - - ",
"F.Z.Z.b.b.b.k.r.M a q q q q q q q q 1 1 1 > @ # # = d c I r.b.Z.S.B.B.S.B.B.B.Z.Z.Z.x.M } F.G.G.F.F.",
"@.@.@.@.@.@.@.@.K v 2 1 1 1 1 1 > # . $ ; d H ! j.Z.S.B.4.>.@.@.@.T T T T T T ....@.B.m K @.@.@.@.@.",
"T T T T T T T T T m d = $ = - ; a n ! I b ! B.>.@.@.@.@...T T T T T T T T T T T T @.T k c ..T T T T ",
"U U U U U U U U T H b v ! r.x.4.4.>.@.G l S @.@.o.T T T T U U U U U U U U U U T T T T a j T T U U U ",
"U U U U U U U U U G v j.S.4.@.T T T ..S k F @.T T U U U U U U U U U U U U U T T U T T a Z T U T T U ",
"U U U U U U U U U Z v ( T T T T T T T S v F T T U U U U U T U T U U U U U U T T T T T p Z T U U T D ",
"D U U U U U U U U t l T T U T T T U T S k F T U U U U U U T T T U U U U U U T T T T T a j T U U U T ",
"T D U U U U U U U 7 z T T U U T U U T S k F U U U U U U U U T U U U U U U U U U U T T a j T U U U U ",
"U U U T U U U U V 6 z T U U U D U U T Z a Z U U U U U U U U U U U U U U U U U U U U T a Z T U U U U ",
"U U U U U U U U B 6 S T U U T D U U T Z a u U U U U U U U U U U U U U U U U U U U U T a x U U U U U ",
"U U U U U U U U y p S T U U T U U U T Z a t B V D D U U U U U U U U U U U U U U U U U a j U U U U U ",
"U U U U U U U V t a Z U U U T T T U U j k e y y y y B B B B B V V V U V V V V V B B B p j U U U T T ",
"U U U U U U V y t a B U U U U U U U U j k 1 1 q q q q q q q q q w y q y y y y y y y q i j U U U T T ",
"D D V B N y q q 7 d y N V U U U U U U h b 6 # @ @ @ @ > > > > 1 1 1 1 1 1 1 1 1 1 1 1 s t V D U U U ",
"y w w q q 1 1 > 6 d 1 q q y N B D D D h M M M v a a a i : - & & $ $ % * + + # # # # 3 v t y y y y y ",
"1 1 1 > , # + & l v 6 , 1 q q q q q y 7 v S.G.S.S.S.Z.Z.Z.n.n.n.k.k.h.h.} ] ' P M M M M 5 1 q q 1 1 ",
"= 4 d n m K ` r.r.r.} n ; * # > 1 1 1 3 k :.@.T T T ....@.@.@.@.@.=.>.>.4.B.B.B.Z.C.Z.P k 3 , # # = ",
"u.x.4.4.>.>.@.T T T @.B.x.` c d = = 3 i k T @.@...T T T T T T T T T T T T T T T T T ..r.M l z H } r.",
"@.@.T T T T T T T T T T T @.>.x.j.L v b v T @.T T T T U U U U U T T T T T T T T T T T ) M r.B.>.@.T ",
"T T T U U U U U U U U U U U T T T =.x.J v T ..T U T U T U U U U T T T U U U U U U T T T M G o.@.T T ",
"T U U U U U U U U U U U U U U U U T U c v T T U T T T T U U U U T T T T U U U U U T T T M c @.T T U ",
"U U U U U T U U U U U U U U U U U U V h v T U U U U T U U U U U U T T T T U U U U U U U m z T T U U ",
"U U U U U T U U U U U U U U U U U U B t k D U U U T T T U U U U U U T T T T U U U U D N z d T T U U ",
"U U U U U T T U U U U U U U U U U D y 7 a B V D U U U U U U U U U U U U U U U U D V B q t a T T U U ",
"U U U U U U T U U U U U U U U U U B q 7 a y y y y y y y N N N B B B B B B B B N N N q q 5 a U T U U "
};
